<svg id="Layer_1" data-name="Layer 1" xmlns="http://www.w3.org/2000/svg" viewBox="0 0 761.9 342.54"><title>DVD_logo</title><path d="M433.89,59.32s-52.35,64.46-49.68,68.58c3.71-4.11-18.8-69.28-18.8-69.28S360.72,44.91,346,0H65.43L55.68,42.16h91c47.3,0,76.17,19.55,68.11,54.19-8.71,37.72-50,53.82-94,53.82H104.34L125.49,58H52L20.78,192.69H125.15c78.52,0,153-42.16,166.45-96.34,2.35-10,2-35-4-49.73a13.53,13.53,0,0,0-.68-2c-.33-.35-.68-2.75.68-3.1.66-.35,2,1,2,1.36,0,0,.68,1.74,1.34,3.1l66.44,191.68L526.52,42.51,598,42.16h17.44c47.33,0,76.53,19.55,68.45,54.19-8.72,37.72-50.3,53.82-94.29,53.82H572.82L594.29,58H520.81L489.58,192.69H594c78.52,0,153.69-42.16,166.11-96.34C772.82,42.16,717.78,0,638.58,0H482.88c-41.27,49.71-49,59.32-49,59.32Z"/><path d="M359.71,238.3C161.07,238.3,0,261.62,0,290.43s161.07,52.11,359.71,52.11c199,0,360.09-23.31,360.09-52.11S558.72,238.3,359.71,238.3ZM347,308.95c-45.64,0-82.21-7.89-82.21-17.5S301.32,274,347,274c45.29,0,81.9,7.87,81.9,17.49S392.25,308.95,347,308.95Z"/></svg>